{"title":"Chelsea S01E15 WEBRip x264-TheRival","uid":14877451,"size":397779740,"categoryP":"video","categoryS":"tv_shows","magnet":"?xt=urn:btih:e4726aeb1ef79e8368c546cde27d992195fe4f8c&amp;dn=Chelsea+S01E15+WEBRip+x264-TheRival&amp;tr=udp%3A%2F%2Ftracker.leechers-paradise.org%3A6969&amp;tr=udp%3A%2F%2Fzer0day.ch%3A1337&amp;tr=udp%3A%2F%2Fopen.demonii.com%3A1337&amp;tr=udp%3A%2F%2Ftracker.coppersurfer.tk%3A6969&amp;tr=udp%3A%2F%2Fexodus.desync.com%3A6969","seeders":1,"leechers":0,"uploader":"TheRival","files":1,"time":1465600228,"description":"Screens: \nhttp://extraimago.com/image/aBfX\r\n\r\nVideo\r\nID : 1\r\nFormat : AVC\r\nFormat/Info : Advanced Video Codec\r\nFormat profile :   \r\nFormat settings, CABAC : Yes\r\nFormat settings, ReFrames : 2 frames\r\nFormat settings, GOP : M=1, N=24\r\nCodec ID : avc1\r\nCodec ID/Info : Advanced Video Coding\r\nDuration : 32mn 7s\r\nBit rate mode : Variable\r\nBit rate : 1 514 Kbps\r\nMaximum bit rate : 2 311 Kbps\r\nWidth : 852 pixels\r\nHeight : 480 pixels\r\nDisplay aspect ratio : 16:9\r\nFrame rate mode : Constant\r\nFrame rate : 30.000 fps\r\nColor space : YUV\r\nChroma subsampling : 4:2:0\r\nBit depth : 8 bits\r\nScan type : Progressive\r\nBits/(Pixel*Frame) : 0.123\r\nStream size : 348 MiB (92%)\r\nEncoded date : UTC 2016-06-10 08:22:24\r\nTagged date : UTC 2016-06-10 08:25:47\r\nColor primaries : BT.601 NTSC\r\nTransfer characteristics : BT.709\r\nMatrix coefficients : BT.601\r\n\r\nAudio\r\nID : 2\r\nFormat : AAC\r\nFormat/Info : Advanced Audio Codec\r\nFormat profile : LC\r\nCodec ID : 40\r\nDuration : 32mn 7s\r\nBit rate mode : Variable\r\nBit rate : 128 Kbps\r\nMaximum bit rate : 132 Kbps\r\nChannel(s) : 2 channels\r\nChannel positions : Front: L R\r\nSampling rate : 48.0 KHz\r\nFrame rate : 46.875 fps (1024 spf)\r\nCompression mode : Lossy\r\nStream size : 29.4 MiB (8%)\r\nTitle : aac 2.0\r\nDefault : Yes\r\nAlternate group : 1","torrent":{"xt":"urn:btih:e4726aeb1ef79e8368c546cde27d992195fe4f8c","amp;dn":"Chelsea+S01E15+WEBRip+x264-TheRival","amp;tr":["udp%3A%2F%2Ftracker.leechers-paradise.org%3A6969","udp%3A%2F%2Fzer0day.ch%3A1337","udp%3A%2F%2Fopen.demonii.com%3A1337","udp%3A%2F%2Ftracker.coppersurfer.tk%3A6969","udp%3A%2F%2Fexodus.desync.com%3A6969"],"infoHash":"e4726aeb1ef79e8368c546cde27d992195fe4f8c","infoHashBuffer":{"type":"Buffer","data":[228,114,106,235,30,247,158,131,104,197,70,205,226,125,153,33,149,254,79,140]},"announce":[],"urlList":[]}}